<?xml version="1.0" standalone="no"?>
<!DOCTYPE svg PUBLIC "-//W3C//DTD SVG 20010904//EN"
 "http://www.w3.org/TR/2001/REC-SVG-20010904/DTD/svg10.dtd">
<svg version="1.0" xmlns="http://www.w3.org/2000/svg"
 width="591.000000pt" height="591.000000pt" viewBox="0 0 591.000000 591.000000"
 preserveAspectRatio="xMidYMid meet">
<metadata>
Created by potrace 1.15, written by Peter Selinger 2001-2017
</metadata>
<g transform="translate(0.000000,591.000000) scale(0.100000,-0.100000)"
fill="#000000" stroke="none">
<path d="M2740 5693 c-129 -12 -240 -28 -340 -48 -904 -182 -1662 -819 -2003
-1685 -116 -295 -173 -578 -184 -915 -35 -1088 554 -2069 1532 -2551 519 -255
1100 -338 1679 -239 258 44 395 103 517 225 88 87 126 150 168 276 54 160 65
258 64 549 -1 146 -7 314 -15 383 -16 145 -16 145 70 145 158 -2 466 -102 674
-219 125 -70 234 -168 266 -236 9 -21 20 -38 23 -38 11 0 124 179 183 291 352
665 419 1480 180 2198 -373 1123 -1431 1880 -2614 1869 -91 -1 -181 -3 -200
-5z"/>
</g>
</svg>
